<svg width="131" height="26" viewBox="0 0 131 26" fill="none" xmlns="http://www.w3.org/2000/svg">
<g clip-path="url(#clip0_11_4401)">
<path d="M87.3115 0.0241356C86.4201 0.162067 85.3147 0.558619 84.4164 1.06552C82.181 2.32759 80.7843 4.22414 80.3842 6.53448C80.1877 7.67586 80.2474 9.07586 80.5351 10.1586C81.2686 12.8931 83.4057 14.7379 86.7675 15.5414L87.1536 15.6345L89.5223 15.6517L91.891 15.6724L92.1963 15.7793C92.6876 15.9517 93.0105 16.1517 93.3649 16.5C93.7264 16.8517 93.9194 17.169 94.0562 17.6414C94.1229 17.8724 94.137 17.9931 94.137 18.4483C94.137 18.9069 94.1264 19.0172 94.0597 19.2241C93.786 20.0724 92.9824 20.7172 91.8419 21.0034C91.5928 21.0655 91.3717 21.069 85.9359 21.069H80.293V23.5345V26H85.5674C88.7713 26 91.0032 25.9862 91.2594 25.9655C92.9192 25.8276 94.6458 25.4138 95.9969 24.8276C97.2777 24.2724 98.3972 23.4793 98.6849 22.9241L98.7551 22.7931L99.2534 23.2862C99.8219 23.8483 100.162 24.1241 100.787 24.5345C103.071 26.031 105.844 26.3931 108.413 25.531C109.174 25.2724 110.034 24.8414 110.658 24.4C110.809 24.2931 110.946 24.2069 110.964 24.2069C110.981 24.2069 111.136 24.2897 111.304 24.3897C112.652 25.1897 114.09 25.7103 115.526 25.9172C115.877 25.969 116.361 25.9793 119.14 25.9897C121.256 26 122.53 25.9931 122.874 25.969C125.601 25.7724 127.91 24.7586 129.275 23.1552C130.138 22.1448 130.63 20.969 130.833 19.4483C130.854 19.269 130.875 18.7724 130.875 18.3448C130.868 15.0207 129.629 12.6207 127.282 11.3828C126.699 11.0759 125.752 10.769 125.053 10.6552C124.92 10.6345 124.769 10.6069 124.72 10.5966C124.671 10.5862 123.52 10.5655 122.158 10.5517C120.011 10.531 119.66 10.5207 119.491 10.4724C118.551 10.1966 118.014 9.51724 117.877 8.43448C117.684 6.93793 118.424 5.7931 119.919 5.28965L120.316 5.15517L125.66 5.14483L131.002 5.13793V2.56896V-1.90735e-06H125.025C118.4 -1.90735e-06 118.803 -0.0137939 117.993 0.227585C116.789 0.586205 115.519 1.26207 114.596 2.04138C113.154 3.25517 112.294 4.73103 111.981 6.53448C111.908 6.94827 111.834 7.98276 111.866 8.1069C111.894 8.20345 111.834 8.1862 111.715 8.06552C111.546 7.88965 111.03 7.47241 110.662 7.21724C108.511 5.71379 105.816 5.24483 103.296 5.93793C102.187 6.24138 101.033 6.82759 100.085 7.57241C99.671 7.9 98.9236 8.63793 98.5761 9.06896C97.7234 10.1241 97.0812 11.3448 96.6952 12.6379L96.5829 13.0138L96.3197 12.4931C96.0705 12.0069 96.039 11.9655 95.8319 11.8034C95.1336 11.2552 94.2633 10.8621 93.2947 10.6517C92.9578 10.5793 92.8491 10.5724 90.5224 10.5517C88.3572 10.531 88.08 10.5241 87.8905 10.469C87.5255 10.3621 87.2097 10.1793 86.943 9.91724C86.5114 9.48965 86.3043 8.95862 86.2692 8.18276C86.2447 7.6862 86.2903 7.34483 86.4377 6.95172C86.7009 6.24138 87.3396 5.64828 88.1747 5.34483C88.7713 5.12414 88.3572 5.13793 94.7476 5.13793H100.576V2.56896V-1.90735e-06L93.9896 0.00344658C90.3645 0.00689507 87.3606 0.0172405 87.3115 0.0241356ZM105.823 10.569C107.416 10.8414 108.718 12.5759 109.016 14.8172C109.083 15.3207 109.083 16.2655 109.016 16.769C108.837 18.1138 108.283 19.3241 107.49 20.1103C105.563 22.0103 102.942 20.9483 101.977 17.8724C101.78 17.2552 101.689 16.5793 101.689 15.7931C101.689 15.1448 101.72 14.8241 101.84 14.2483C102.17 12.6759 103.064 11.3586 104.173 10.8207C104.472 10.6724 104.616 10.6276 104.942 10.569C105.279 10.5069 105.461 10.5069 105.823 10.569ZM115.217 14.2793C116.119 14.8552 117.516 15.3897 118.624 15.5862C118.986 15.6517 119.168 15.6552 121.179 15.6552H123.344L123.653 15.7448C124.236 15.9103 124.766 16.2379 125.134 16.6655C125.717 17.3379 125.92 18.4586 125.618 19.3172C125.338 20.1034 124.527 20.731 123.446 20.9966C123.148 21.0724 123.134 21.0724 119.326 21.0586C115.178 21.0483 115.382 21.0552 114.771 20.8552C114.491 20.7655 113.982 20.5241 113.982 20.4828C113.982 20.4621 114.052 20.2897 114.136 20.0931C114.498 19.2517 114.768 18.2759 114.919 17.2379C114.996 16.6897 115.003 14.9276 114.922 14.4034C114.898 14.2207 114.877 14.069 114.884 14.069C114.887 14.069 115.038 14.1621 115.217 14.2793Z" fill="#EE1D25"/>
<path d="M7.16016 8.79334V12.8623H7.8971H8.63404V8.79334V4.72437H7.8971H7.16016V8.79334Z" fill="#034EA2"/>
<path d="M19.7227 8.79334V12.8623H20.4596H21.1965V8.79334V4.72437H20.4596H19.7227V8.79334Z" fill="#034EA2"/>
<path d="M31.3078 8.5623L31.3183 12.4037L31.4166 12.5416C31.4692 12.6175 31.592 12.7209 31.6833 12.7726L31.8552 12.8623H34.1503H36.4453L36.5997 12.783C36.6875 12.7416 36.8068 12.6416 36.8699 12.5589L36.9858 12.4071V12.6347V12.8623H38.2561C39.4808 12.8623 39.53 12.8589 39.6809 12.7899C39.7651 12.7485 39.8809 12.652 39.937 12.5761L40.0388 12.4382V12.6485V12.8623H41.3197C42.7234 12.8623 42.7374 12.8623 42.9444 12.6554C43.1725 12.4347 43.162 12.5485 43.162 9.82437V7.34506H42.4075H41.653V9.37955V11.414H40.8635H40.0739V9.37955V7.34506H39.3194H38.5649V9.37955V11.414H37.7929H37.0208V9.37955V7.34506H36.2488H35.4768V9.37955V11.414H34.1433H32.8098V8.0692V4.72437H32.0553H31.3008L31.3078 8.5623Z" fill="#034EA2"/>
<path d="M56.4966 4.86231C54.4156 5.01748 52.5487 6.05196 51.6819 7.52093C51.4643 7.88989 51.3731 8.1623 51.3485 8.50368C51.3134 9.02437 51.5205 9.40368 51.9451 9.58989L52.1276 9.67265L54.391 9.68989C56.4685 9.70713 56.665 9.71058 56.7668 9.7692C56.9773 9.87955 57.0019 9.97265 57.0159 10.7313L57.03 11.414H53.6751H50.3203V12.1382V12.8623L62.4026 12.8554L74.4885 12.8451L74.6323 12.7451C74.7271 12.683 74.8113 12.583 74.871 12.4623L74.9622 12.2795L74.9482 10.9416C74.9341 9.71058 74.9271 9.58299 74.8569 9.33817C74.8183 9.19334 74.7587 9.02437 74.7271 8.96231C74.6253 8.7692 74.4007 8.56575 74.1902 8.47265C73.7761 8.28989 73.5655 8.27265 71.4214 8.25196C70.3335 8.24162 69.4457 8.22437 69.4457 8.21058C69.4457 8.14506 69.7334 7.77955 69.951 7.5692C70.3897 7.14506 71.0178 6.78299 71.6916 6.57265C72.1794 6.41748 72.5373 6.34851 73.1199 6.30024L73.6041 6.25886L73.6287 5.5692C73.6427 5.06231 73.6392 4.87265 73.6112 4.85196C73.555 4.81748 72.8918 4.85541 72.4285 4.91748C70.5511 5.17955 68.8982 6.17265 68.1052 7.52093C67.8876 7.88989 67.7963 8.1623 67.7718 8.50368C67.7367 9.02437 67.9437 9.40368 68.3683 9.58989L68.5508 9.67265L70.8143 9.68989C72.8918 9.70713 73.0883 9.71058 73.19 9.7692C73.4006 9.87955 73.4252 9.97265 73.4392 10.7313L73.4532 11.414H69.6071H65.761L65.754 9.50713L65.7434 7.59679L65.6417 7.45541C65.5785 7.36231 65.4767 7.27955 65.3609 7.22437L65.182 7.14162L63.7783 7.13127C62.3851 7.12093 62.371 7.12093 62.1289 7.20024C61.1884 7.51058 60.4936 8.21058 60.1778 9.15541C60.1041 9.37955 60.0971 9.47265 60.083 10.4037L60.069 11.414H59.304H58.539L58.5249 10.5071C58.5109 9.73127 58.4968 9.56575 58.4337 9.33817C58.3951 9.19334 58.3354 9.02437 58.3038 8.96231C58.2021 8.7692 57.9775 8.56575 57.7669 8.47265C57.3528 8.28989 57.1423 8.27265 54.9981 8.25196C53.9103 8.24162 53.0224 8.22437 53.0224 8.21058C53.0224 8.14506 53.3102 7.77955 53.5278 7.5692C53.9664 7.14506 54.5946 6.78299 55.2683 6.57265C55.7561 6.41748 56.1141 6.34851 56.6966 6.30024L57.1809 6.25886L57.2054 5.5692C57.2195 5.06231 57.216 4.87265 57.1879 4.85541C57.1388 4.82437 56.9703 4.82782 56.4966 4.86231ZM63.9642 8.5761L64.252 8.59679V10.0037V11.414H62.915H61.5815L61.592 10.4726C61.6025 9.54162 61.6025 9.53472 61.6938 9.34162C61.8552 9.00368 62.1921 8.71058 62.543 8.60368C62.7044 8.55196 63.4765 8.53817 63.9642 8.5761Z" fill="#034EA2"/>
<path d="M2.66551 5.30649C2.48303 5.34442 2.34266 5.42718 2.20229 5.5789C1.8268 5.9858 2.03385 6.65477 2.58129 6.81339C3.27261 7.00994 3.86567 6.32373 3.5358 5.70649C3.3814 5.41683 2.99889 5.24097 2.66551 5.30649Z" fill="#034EA2"/>
<path d="M27.0913 5.30649C26.9088 5.34442 26.7684 5.42718 26.6281 5.5789C26.2526 5.9858 26.4596 6.65477 27.0071 6.81339C27.6984 7.00994 28.2915 6.32373 27.9616 5.70649C27.8072 5.41683 27.4247 5.24097 27.0913 5.30649Z" fill="#034EA2"/>
<path d="M16.8106 9.37887V11.4133H15.1191H13.4241V10.5271C13.4241 10.0375 13.4101 9.27542 13.3926 8.83404L13.361 8.03404H12.6135H11.8625V8.19611C11.8625 8.28921 11.8801 8.85128 11.9011 9.45128C11.9994 12.134 11.7537 13.3961 10.9887 14.1375C10.6167 14.4961 10.1746 14.6823 9.53941 14.7409L9.30078 14.7651V15.4892V16.2168L9.62714 16.1892C10.7466 16.1065 11.4905 15.7892 12.1362 15.1237C12.424 14.8237 12.5749 14.6065 12.7784 14.1961C12.9013 13.9478 13.1504 13.2306 13.2101 12.9547L13.2311 12.8616H15.4981C17.9721 12.8616 17.8844 12.8685 18.102 12.6547C18.3301 12.434 18.3195 12.5478 18.3195 9.82369V7.34438H17.565H16.8106V9.37887Z" fill="#034EA2"/>
<path d="M4.49143 9.93827C4.49143 11.621 4.4774 12.5314 4.45283 12.6797C4.37914 13.09 4.07734 13.4279 3.63518 13.5969C3.40357 13.6831 2.8842 13.7141 2.58942 13.6555C2.15428 13.5728 1.79633 13.3141 1.60684 12.9383C1.52612 12.7762 1.52612 12.7659 1.5156 11.3521L1.50507 9.93138H0.750581H-0.00390625L0.00662147 11.4383C0.0241677 13.1107 0.0241677 13.1279 0.262796 13.6072C0.610211 14.3072 1.26644 14.8176 2.10515 15.0417C2.36483 15.1107 2.48064 15.121 3.01755 15.1176C3.58605 15.1176 3.65623 15.1107 3.94399 15.021C4.48792 14.859 4.84937 14.6521 5.21434 14.2934C5.48455 14.0314 5.55824 13.9314 5.6951 13.6555C5.9969 13.0521 5.97935 13.2659 5.99339 10.1624L6.00392 7.41414H5.24592H4.49143V9.93827Z" fill="#034EA2"/>
<path d="M28.9172 9.93827C28.9172 11.621 28.9032 12.5314 28.8786 12.6797C28.8049 13.09 28.5031 13.4279 28.061 13.5969C27.8293 13.6831 27.31 13.7141 27.0152 13.6555C26.5801 13.5728 26.2221 13.3141 26.0326 12.9383C25.9519 12.7762 25.9519 12.7659 25.9414 11.3521L25.9308 9.93138H25.1764H24.4219L24.4324 11.4383C24.4499 13.1107 24.4499 13.1279 24.6886 13.6072C25.036 14.3072 25.6922 14.8176 26.5309 15.0417C26.7906 15.1107 26.9064 15.121 27.4433 15.1176C28.0118 15.1176 28.082 15.1107 28.3698 15.021C28.9137 14.859 29.2752 14.6521 29.6401 14.2934C29.9103 14.0314 29.984 13.9314 30.1209 13.6555C30.4227 13.0521 30.4051 13.2659 30.4192 10.1624L30.4297 7.41414H29.6717H28.9172V9.93827Z" fill="#034EA2"/>
<path d="M45.8313 8.19611C45.8313 8.28921 45.8488 8.85128 45.8699 9.45128C45.9681 12.134 45.7225 13.3961 44.9575 14.1375C44.5855 14.4961 44.1433 14.6823 43.5082 14.7409L43.2695 14.7651V15.4892V16.2168L43.5959 16.1892C44.7118 16.1065 45.4488 15.7961 46.0945 15.134C46.6981 14.5168 47.063 13.6961 47.2701 12.5065C47.4139 11.6616 47.435 10.7409 47.3543 8.62714L47.3297 8.03404H46.5787H45.8313V8.19611Z" fill="#034EA2"/>
<path d="M14.9777 13.979C14.7917 14.0445 14.6865 14.1169 14.5882 14.2479C14.304 14.6272 14.4022 15.1307 14.8093 15.3686C14.9707 15.4652 15.0339 15.4824 15.2199 15.4824C15.7041 15.4824 16.0375 15.1721 16.0375 14.7238C16.0375 14.4169 15.8831 14.1686 15.6024 14.0272C15.4269 13.9376 15.1462 13.9169 14.9777 13.979Z" fill="#034EA2"/>
<path d="M16.8463 13.9792C16.534 14.0792 16.3164 14.3861 16.3164 14.724C16.3164 15.324 16.9516 15.6757 17.5131 15.3861C18.0675 15.1033 18.057 14.3102 17.4955 14.0275C17.32 13.9378 17.0428 13.9171 16.8463 13.9792Z" fill="#034EA2"/>
<path d="M0.738281 22.103V25.8271H1.24712H1.75596V22.103V18.3789H1.24712H0.738281V22.103Z" fill="#EE1D25"/>
<path d="M26.1814 18.4547C26.1639 18.4995 25.455 20.165 24.6023 22.1581C23.7495 24.1512 23.0547 25.7926 23.0547 25.8064C23.0547 25.8202 23.2617 25.8237 23.5179 25.8202L23.9776 25.8099L24.4163 24.7823L24.8549 23.7581H26.5639H28.2729L28.6695 24.7788C28.8906 25.3409 29.0871 25.8064 29.1081 25.8133C29.1292 25.8237 29.3748 25.8237 29.6556 25.8202L30.1644 25.8099L28.7011 22.103L27.2412 18.3961L26.7254 18.3857C26.22 18.3788 26.213 18.3788 26.1814 18.4547ZM27.2868 21.2754C27.6448 22.1961 27.9501 22.9685 27.9571 22.9892C27.9711 23.0237 27.6799 23.034 26.5639 23.034C25.448 23.034 25.1567 23.0237 25.1708 22.9892C25.2269 22.8512 26.4762 19.8857 26.5359 19.7478C26.578 19.6581 26.6131 19.5892 26.6201 19.5926C26.6236 19.5995 26.9254 20.3581 27.2868 21.2754Z" fill="#EE1D25"/>
<path d="M41.5156 18.8271V19.2754H41.9718H42.428V18.8271V18.3788H41.9718H41.5156V18.8271Z" fill="#EE1D25"/>
<path d="M49.7248 19.8278V20.4485H49.2335H48.7422V20.8278V21.2071H49.2335H49.7248V22.8519C49.7248 24.5933 49.7388 24.7726 49.8967 25.1174C49.988 25.3243 50.2512 25.5968 50.4793 25.7243C50.946 25.9864 51.5215 26.0278 52.3497 25.8588L52.5322 25.8243V25.4485V25.0761L52.262 25.1485C51.5285 25.3416 50.96 25.1692 50.76 24.7002C50.6653 24.483 50.6372 23.9899 50.6372 22.5795V21.2071L51.4548 21.2002L52.269 21.1899V20.8278V20.4657L51.4548 20.4554L50.6372 20.4485V19.8278V19.2071H50.181H49.7248V19.8278Z" fill="#EE1D25"/>
<path d="M5.45844 20.3616C5.00224 20.4754 4.56007 20.7927 4.28284 21.203L4.15651 21.3892L4.14598 20.9203L4.13546 20.4478H3.68276H3.22656V23.1375V25.8271H3.67925H4.13195L4.14949 24.2513C4.17055 22.5203 4.18459 22.3789 4.38461 21.9789C4.51445 21.7203 4.78818 21.4582 5.08997 21.3065C5.38826 21.1582 5.79182 21.1306 6.13221 21.234L6.34979 21.303V20.8444C6.34979 20.4409 6.34277 20.3823 6.29013 20.3616C6.16029 20.3099 5.66549 20.3099 5.45844 20.3616Z" fill="#EE1D25"/>
<path d="M8.70636 20.362C8.12382 20.4862 7.76588 20.6724 7.45356 21.0103C7.23599 21.2448 7.11667 21.4689 7.09562 21.6931L7.07807 21.862H7.56936H8.06066L8.08171 21.7379C8.1133 21.5448 8.26419 21.3276 8.44667 21.2103C8.71338 21.0379 8.92744 20.9896 9.40119 21.0069C9.87844 21.0241 10.0995 21.1 10.296 21.3103C10.4575 21.4862 10.4926 21.6276 10.4926 22.0931V22.4793L10.3627 22.5034C9.93108 22.5758 9.19063 22.7379 8.8748 22.8276C7.50269 23.2138 7.00087 23.6724 7.00788 24.5344C7.01139 25.0172 7.19037 25.3655 7.57989 25.6517C7.8852 25.8724 8.1519 25.9482 8.63266 25.9482C9.26784 25.9482 9.65385 25.7965 10.2118 25.3276L10.475 25.1103L10.4996 25.2517C10.5136 25.331 10.5522 25.4931 10.5838 25.6103L10.64 25.8276H11.1312C11.5839 25.8276 11.6225 25.8241 11.598 25.7689C11.5839 25.7344 11.5418 25.5689 11.5067 25.3965C11.4436 25.1207 11.4365 24.8965 11.419 23.362C11.3979 21.4551 11.3804 21.2724 11.1909 20.9862C10.9944 20.7 10.4961 20.4482 9.91705 20.3482C9.62929 20.2965 8.97657 20.3069 8.70636 20.362ZM10.4575 24.0172C10.3346 24.6276 9.80826 25.1517 9.18011 25.2758C8.52388 25.4069 7.93783 24.9758 8.01504 24.4241C8.09224 23.8724 8.58353 23.5758 10.0083 23.2241L10.475 23.1103L10.4855 23.4586C10.4926 23.6517 10.4785 23.9034 10.4575 24.0172Z" fill="#EE1D25"/>
<path d="M15.2125 20.3444C14.6756 20.4582 14.1281 20.8271 13.8684 21.2478C13.8369 21.303 13.7983 21.3444 13.7842 21.3444C13.7702 21.3444 13.7562 21.1409 13.7562 20.8961V20.4478H13.3H12.8438V23.1375V25.8271H13.2964H13.7491L13.7667 24.2513C13.7807 22.7892 13.7877 22.6513 13.8579 22.403C13.9527 22.0444 14.0825 21.8203 14.3211 21.5823C14.6124 21.2961 14.9107 21.1616 15.2967 21.1444C15.5424 21.134 15.6336 21.1444 15.795 21.203C16.0407 21.2961 16.2547 21.472 16.346 21.6651C16.4723 21.9203 16.4934 22.2754 16.4934 24.0892V25.8271H16.9496H17.4058V23.834C17.4058 21.6892 17.3952 21.572 17.2163 21.1858C17.0513 20.834 16.6794 20.534 16.2231 20.3927C16.0231 20.3306 15.4125 20.2996 15.2125 20.3444Z" fill="#EE1D25"/>
<path d="M32.4078 20.3586C31.7376 20.4862 31.2919 20.7965 31.0427 21.3103C30.9515 21.5 30.9304 21.5827 30.9234 21.8448C30.9059 22.2655 30.9901 22.4931 31.2638 22.762C31.5305 23.0207 31.8113 23.1482 32.7763 23.431C33.601 23.6724 33.6992 23.7103 33.8957 23.8551C34.0221 23.9482 34.1414 24.1689 34.1449 24.3103C34.1449 24.5758 33.9379 24.8793 33.6325 25.0551C33.3062 25.2448 32.6745 25.2862 32.2148 25.1517C31.9586 25.0793 31.706 24.8379 31.6709 24.6379C31.6568 24.562 31.6428 24.4793 31.6358 24.4551C31.6253 24.4241 31.4989 24.4138 31.1585 24.4138H30.6953L30.7164 24.5793C30.7901 25.1931 31.2884 25.6862 32.0394 25.8862C32.2148 25.9344 32.4043 25.9482 32.8465 25.9482C33.2886 25.9482 33.4781 25.9344 33.6536 25.8862C34.0256 25.7896 34.3169 25.6276 34.552 25.3965C34.9064 25.0517 35.0573 24.6862 35.0573 24.1655C35.0573 23.8069 34.9801 23.5655 34.7941 23.3551C34.5485 23.0724 34.2993 22.9655 33.1763 22.6586C32.3411 22.431 32.1622 22.3586 31.9762 22.1827L31.8218 22.0379L31.8358 21.7965C31.8463 21.5896 31.8639 21.5379 31.9551 21.4241C32.0148 21.3517 32.1552 21.2448 32.2675 21.1896C32.4675 21.0896 32.4885 21.0862 32.9658 21.0862C33.436 21.0862 33.4711 21.0896 33.6606 21.1827C33.8677 21.2827 34.0045 21.4413 34.0045 21.5827C34.0045 21.6517 34.0186 21.6551 34.4818 21.6551H34.959L34.938 21.5241C34.8327 20.9448 34.4467 20.5517 33.8326 20.3965C33.5203 20.3172 32.7342 20.2965 32.4078 20.3586Z" fill="#EE1D25"/>
<path d="M37.6344 20.3586C36.9641 20.4862 36.5184 20.7965 36.2693 21.3103C36.178 21.5 36.157 21.5827 36.15 21.8448C36.1324 22.2655 36.2167 22.4931 36.4904 22.762C36.7571 23.0207 37.0378 23.1482 38.0029 23.431C38.8275 23.6724 38.9258 23.7103 39.1223 23.8551C39.2486 23.9482 39.368 24.1689 39.3715 24.3103C39.3715 24.5758 39.1644 24.8793 38.8591 25.0551C38.5328 25.2448 37.9011 25.2862 37.4414 25.1517C37.1852 25.0793 36.9325 24.8379 36.8974 24.6379C36.8834 24.562 36.8694 24.4793 36.8624 24.4551C36.8518 24.4241 36.7255 24.4138 36.3851 24.4138H35.9219L35.9429 24.5793C36.0166 25.1931 36.5149 25.6862 37.2659 25.8862C37.4414 25.9344 37.6309 25.9482 38.073 25.9482C38.5152 25.9482 38.7047 25.9344 38.8802 25.8862C39.2521 25.7896 39.5434 25.6276 39.7785 25.3965C40.133 25.0517 40.2839 24.6862 40.2839 24.1655C40.2839 23.8069 40.2067 23.5655 40.0207 23.3551C39.775 23.0724 39.5259 22.9655 38.4029 22.6586C37.5677 22.431 37.3887 22.3586 37.2027 22.1827L37.0483 22.0379L37.0624 21.7965C37.0729 21.5896 37.0905 21.5379 37.1817 21.4241C37.2413 21.3517 37.3817 21.2448 37.494 21.1896C37.694 21.0896 37.7151 21.0862 38.1924 21.0862C38.6626 21.0862 38.6977 21.0896 38.8872 21.1827C39.0942 21.2827 39.2311 21.4413 39.2311 21.5827C39.2311 21.6517 39.2451 21.6551 39.7083 21.6551H40.1856L40.1645 21.5241C40.0593 20.9448 39.6733 20.5517 39.0591 20.3965C38.7468 20.3172 37.9607 20.2965 37.6344 20.3586Z" fill="#EE1D25"/>
<path d="M45.2867 20.3586C44.6165 20.4862 44.1708 20.7965 43.9216 21.3103C43.8304 21.5 43.8093 21.5827 43.8023 21.8448C43.7848 22.2655 43.869 22.4931 44.1427 22.762C44.4094 23.0207 44.6902 23.1482 45.6552 23.431C46.4799 23.6724 46.5781 23.7103 46.7746 23.8551C46.901 23.9482 47.0203 24.1689 47.0238 24.3103C47.0238 24.5758 46.8168 24.8793 46.5115 25.0551C46.1851 25.2448 45.5534 25.2862 45.0937 25.1517C44.8375 25.0793 44.5849 24.8379 44.5498 24.6379C44.5358 24.562 44.5217 24.4793 44.5147 24.4551C44.5042 24.4241 44.3778 24.4138 44.0374 24.4138H43.5742L43.5953 24.5793C43.669 25.1931 44.1673 25.6862 44.9183 25.8862C45.0937 25.9344 45.2832 25.9482 45.7254 25.9482C46.1675 25.9482 46.357 25.9344 46.5325 25.8862C46.9045 25.7896 47.1958 25.6276 47.4309 25.3965C47.7853 25.0517 47.9362 24.6862 47.9362 24.1655C47.9362 23.8069 47.859 23.5655 47.673 23.3551C47.4274 23.0724 47.1782 22.9655 46.0553 22.6586C45.2201 22.431 45.0411 22.3586 44.8551 22.1827L44.7007 22.0379L44.7147 21.7965C44.7253 21.5896 44.7428 21.5379 44.834 21.4241C44.8937 21.3517 45.0341 21.2448 45.1464 21.1896C45.3464 21.0896 45.3674 21.0862 45.8447 21.0862C46.3149 21.0862 46.35 21.0896 46.5395 21.1827C46.7466 21.2827 46.8834 21.4413 46.8834 21.5827C46.8834 21.6517 46.8975 21.6551 47.3607 21.6551H47.8379L47.8169 21.5241C47.7116 20.9448 47.3256 20.5517 46.7115 20.3965C46.3992 20.3172 45.6131 20.2965 45.2867 20.3586Z" fill="#EE1D25"/>
<path d="M55.2025 20.362C54.6199 20.4862 54.262 20.6724 53.9497 21.0103C53.7321 21.2448 53.6128 21.4689 53.5917 21.6931L53.5742 21.862H54.0655H54.5568L54.5778 21.7379C54.6094 21.5448 54.7603 21.3276 54.9428 21.2103C55.2095 21.0379 55.4235 20.9896 55.8973 21.0069C56.3745 21.0241 56.5956 21.1 56.7921 21.3103C56.9536 21.4862 56.9887 21.6276 56.9887 22.0931V22.4793L56.8588 22.5034C56.4272 22.5758 55.6867 22.7379 55.3709 22.8276C53.9988 23.2138 53.497 23.6724 53.504 24.5344C53.5075 25.0172 53.6865 25.3655 54.076 25.6517C54.3813 25.8724 54.648 25.9482 55.1288 25.9482C55.7639 25.9482 56.1499 25.7965 56.7079 25.3276L56.9711 25.1103L56.9957 25.2517C57.0097 25.331 57.0483 25.4931 57.0799 25.6103L57.136 25.8276H57.6273C58.08 25.8276 58.1186 25.8241 58.0941 25.7689C58.08 25.7344 58.0379 25.5689 58.0028 25.3965C57.9397 25.1207 57.9326 24.8965 57.9151 23.362C57.894 21.4551 57.8765 21.2724 57.687 20.9862C57.4905 20.7 56.9922 20.4482 56.4131 20.3482C56.1254 20.2965 55.4727 20.3069 55.2025 20.362ZM56.9536 24.0172C56.8307 24.6276 56.3044 25.1517 55.6762 25.2758C55.02 25.4069 54.4339 24.9758 54.5111 24.4241C54.5883 23.8724 55.0796 23.5758 56.5044 23.2241L56.9711 23.1103L56.9816 23.4586C56.9887 23.6517 56.9746 23.9034 56.9536 24.0172Z" fill="#EE1D25"/>
<path d="M61.7086 20.3444C61.1717 20.4582 60.6242 20.8271 60.3645 21.2478C60.333 21.303 60.2944 21.3444 60.2803 21.3444C60.2663 21.3444 60.2522 21.1409 60.2522 20.8961V20.4478H59.796H59.3398V23.1375V25.8271H59.7925H60.2452L60.2628 24.2513C60.2768 22.7892 60.2838 22.6513 60.354 22.403C60.4488 22.0444 60.5786 21.8203 60.8172 21.5823C61.1085 21.2961 61.4068 21.1616 61.7928 21.1444C62.0385 21.134 62.1297 21.1444 62.2911 21.203C62.5368 21.2961 62.7508 21.472 62.8421 21.6651C62.9684 21.9203 62.9895 22.2754 62.9895 24.0892V25.8271H63.4457H63.9019V23.834C63.9019 21.6892 63.8913 21.572 63.7124 21.1858C63.5474 20.834 63.1754 20.534 62.7192 20.3927C62.5192 20.3306 61.9086 20.2996 61.7086 20.3444Z" fill="#EE1D25"/>
<path d="M67.1404 20.3417C66.2736 20.4796 65.6419 20.9658 65.3191 21.752C64.9611 22.6244 64.9927 23.9106 65.3928 24.7072C65.8139 25.5382 66.5719 25.9658 67.6387 25.9658C68.123 25.9658 68.4844 25.8934 68.8389 25.7244C69.3337 25.4865 69.7127 25.0279 69.7548 24.6175L69.7723 24.4486H69.3126C68.8108 24.4486 68.8459 24.4313 68.7967 24.6762C68.7195 25.0589 68.0949 25.3106 67.4562 25.2141C67.0948 25.1589 66.8561 25.0417 66.6 24.8072C66.3683 24.59 66.221 24.3279 66.1227 23.9658C66.028 23.6175 66.0385 22.6313 66.1402 22.2624C66.2806 21.7589 66.5508 21.4244 66.986 21.2141L67.2492 21.0865H67.7229C68.1756 21.0865 68.2107 21.09 68.4037 21.1865C68.6423 21.3003 68.7932 21.4796 68.8283 21.69L68.8494 21.8279H69.3126H69.7723L69.7513 21.6417C69.6951 21.1072 69.1336 20.5831 68.4107 20.3934C68.1686 20.3313 67.4106 20.3003 67.1404 20.3417Z" fill="#EE1D25"/>
<path d="M72.8102 20.3452C72.1821 20.4486 71.5925 20.8142 71.2205 21.3279C70.3924 22.4659 70.4731 24.259 71.3995 25.2383C71.8908 25.759 72.5786 25.9969 73.4945 25.959C74.2174 25.9279 74.7333 25.7142 75.1404 25.2831C75.3509 25.059 75.4843 24.7831 75.4843 24.5693V24.4486H75.0281H74.5719V24.5486C74.5719 24.7004 74.3718 24.9624 74.1648 25.0762C73.7753 25.2866 73.0488 25.2866 72.5786 25.0693C72.0242 24.8142 71.6241 24.1728 71.5855 23.4797L71.5715 23.259L73.5507 23.2486L75.5299 23.2417L75.5088 22.6969C75.4808 21.8417 75.3018 21.3452 74.8701 20.9107C74.4104 20.4486 73.5717 20.2211 72.8102 20.3452ZM73.8419 21.1797C73.9507 21.2279 74.1086 21.3348 74.1964 21.4107C74.4455 21.6383 74.6385 22.0831 74.642 22.4383V22.5866H73.1296C71.7083 22.5866 71.6206 22.5831 71.6381 22.5245C71.6487 22.4935 71.6732 22.3969 71.6943 22.3107C71.7961 21.9245 72.1715 21.4142 72.4733 21.2521C72.7892 21.0831 72.8594 21.0693 73.2559 21.0797C73.5858 21.0866 73.67 21.1004 73.8419 21.1797Z" fill="#EE1D25"/>
<path d="M41.5156 23.1375V25.8271H41.9718H42.428V23.1375V20.4478H41.9718H41.5156V23.1375Z" fill="#EE1D25"/>
</g>
<defs>
<clipPath id="clip0_11_4401">
<rect width="131" height="26" fill="white"/>
</clipPath>
</defs>
</svg>
